<svg xmlns="http://www.w3.org/2000/svg" width="20" height="20" viewBox="0 0 20 20">
    <g fill="none" fill-rule="evenodd" opacity=".5">
        <path fill="#FFF" d="M13.323 4c.578 0 .782.027 1.006.09.223.062.42.159.605.3.185.14.33.286.68.746l2.14 2.814c.463.608.582.867.66 1.174.076.307.074.612-.008.918-.082.306-.205.563-.677 1.164l-2.111 2.689c-.353.449-.497.59-.681.727a1.757 1.757 0 01-.6.292c-.22.06-.422.086-.992.086h-7.5c-1.336 0-1.821-.14-2.31-.4A2.726 2.726 0 012.4 13.464c-.262-.489-.401-.974-.401-2.31v-3.31c0-1.336.14-1.821.4-2.31A2.726 2.726 0 013.536 4.4C4.024 4.139 4.509 4 5.845 4h7.478zM7 7H4v5h1v-2h1v2h1V7zm3 0H8v5h2v-1H9V8h1V7zm5 0h-3v3h2v1h-2v1h3V9h-2V8h2V7zm-4 1h-1v3h1V8zM6 8v1H5V8h1z"/>
    </g>
</svg>
