<svg xmlns="http://www.w3.org/2000/svg" width="20" height="20" viewBox="0 0 20 20">
    <g fill="none" fill-rule="evenodd">
        <path fill="#578FFF" d="M5.564 9h8.872c.892 0 1.215.093 1.54.267.327.174.583.43.757.756.174.326.267.65.267 1.54v2.873c0 .892-.093 1.215-.267 1.54-.174.327-.43.583-.756.757-.326.174-.65.267-1.54.267H5.563c-.892 0-1.215-.093-1.54-.267-.327-.174-.583-.43-.757-.756-.174-.326-.267-.65-.267-1.54v-2.873c0-.892.093-1.215.267-1.54.174-.327.43-.583.756-.757.326-.174.65-.267 1.54-.267z"/>
        <rect width="12" height="2" x="4" y="6" fill="#578FFF" rx="1"/>
        <rect width="8" height="2" x="6" y="3" fill="#578FFF" rx="1"/>
    </g>
</svg>
