<svg xmlns="http://www.w3.org/2000/svg" width="20" height="20" viewBox="0 0 20 20">
    <path fill="#FFF" fill-rule="nonzero" d="M15.984 13.871c.011-.178.016-.408.016-.717V6.846c0-.917-.043-1.142-.164-1.368a.727.727 0 0 0-.314-.314c-.226-.12-.45-.164-1.368-.164H5.846c-.917 0-1.142.043-1.368.164a.727.727 0 0 0-.314.314c-.12.226-.164.45-.164 1.368v6.308c0 .917.043 1.142.164 1.368.033.061.07.114.113.161L7.5 11l2.021 2.31L12.5 10l3.484 3.871zM5.846 3h8.308c1.337 0 1.822.14 2.311.4.49.262.873.646 1.134 1.135.262.489.401.974.401 2.31v6.31c0 1.336-.14 1.821-.4 2.31a2.726 2.726 0 0 1-1.135 1.134c-.489.262-.974.401-2.31.401h-8.31c-1.336 0-1.821-.14-2.31-.4A2.726 2.726 0 0 1 2.4 15.464c-.262-.489-.401-.974-.401-2.31v-6.31c0-1.336.14-1.821.4-2.31A2.726 2.726 0 0 1 3.536 3.4C4.024 3.139 4.509 3 5.845 3zM7.5 10a1.5 1.5 0 1 1 0-3 1.5 1.5 0 0 1 0 3z"/>
</svg>
