<svg xmlns="http://www.w3.org/2000/svg" width="66" height="66" viewBox="0 0 66 66">
    <g fill="none" fill-rule="evenodd">
        <g>
            <path fill="#E8EAED" d="M66.872 8c1.783 0 2.43.186 3.082.534.652.349 1.163.86 1.512 1.512.348.652.534 1.299.534 3.082l.001 43.387c-.62-.512-1.297-.958-2.02-1.325l.012-.073L70 55v-1c0-.552-.448-1-1-1h-2c-.513 0-.936.386-.993.883L66 54v.045c-.329-.03-.663-.045-1-.045-.337 0-.67.015-1 .045V9H16v61h39.2c.176.345.37.678.58 1H13.127c-1.783 0-2.43-.186-3.082-.534-.652-.349-1.163-.86-1.512-1.512C8.186 68.302 8 67.655 8 65.872V13.128c0-1.783.186-2.43.534-3.082.349-.652.86-1.163 1.512-1.512.652-.348 1.299-.534 3.082-.534h53.744zM13 65h-2c-.513 0-.936.386-.993.883L10 66v1c0 .513.386.936.883.993L11 68h2c.513 0 .936-.386.993-.883L14 67v-1c0-.552-.448-1-1-1zm0-6h-2c-.513 0-.936.386-.993.883L10 60v1c0 .513.386.936.883.993L11 62h2c.513 0 .936-.386.993-.883L14 61v-1c0-.552-.448-1-1-1zm0-6h-2c-.513 0-.936.386-.993.883L10 54v1c0 .513.386.936.883.993L11 56h2c.513 0 .936-.386.993-.883L14 55v-1c0-.552-.448-1-1-1zm56-6h-2c-.513 0-.936.386-.993.883L66 48v1c0 .513.386.936.883.993L67 50h2c.513 0 .936-.386.993-.883L70 49v-1c0-.552-.448-1-1-1zm-56 0h-2c-.513 0-.936.386-.993.883L10 48v1c0 .513.386.936.883.993L11 50h2c.513 0 .936-.386.993-.883L14 49v-1c0-.552-.448-1-1-1zm56-6h-2c-.513 0-.936.386-.993.883L66 42v1c0 .513.386.936.883.993L67 44h2c.513 0 .936-.386.993-.883L70 43v-1c0-.552-.448-1-1-1zm-56 0h-2c-.513 0-.936.386-.993.883L10 42v1c0 .513.386.936.883.993L11 44h2c.513 0 .936-.386.993-.883L14 43v-1c0-.552-.448-1-1-1zm56-6h-2c-.513 0-.936.386-.993.883L66 36v1c0 .513.386.936.883.993L67 38h2c.513 0 .936-.386.993-.883L70 37v-1c0-.552-.448-1-1-1zm-56 0h-2c-.513 0-.936.386-.993.883L10 36v1c0 .513.386.936.883.993L11 38h2c.513 0 .936-.386.993-.883L14 37v-1c0-.552-.448-1-1-1zm56-6h-2c-.513 0-.936.386-.993.883L66 30v1c0 .513.386.936.883.993L67 32h2c.513 0 .936-.386.993-.883L70 31v-1c0-.552-.448-1-1-1zm-56 0h-2c-.513 0-.936.386-.993.883L10 30v1c0 .513.386.936.883.993L11 32h2c.513 0 .936-.386.993-.883L14 31v-1c0-.552-.448-1-1-1zm56-6h-2c-.513 0-.936.386-.993.883L66 24v1c0 .513.386.936.883.993L67 26h2c.513 0 .936-.386.993-.883L70 25v-1c0-.552-.448-1-1-1zm-56 0h-2c-.513 0-.936.386-.993.883L10 24v1c0 .513.386.936.883.993L11 26h2c.513 0 .936-.386.993-.883L14 25v-1c0-.552-.448-1-1-1zm56-6h-2c-.513 0-.936.386-.993.883L66 18v1c0 .513.386.936.883.993L67 20h2c.513 0 .936-.386.993-.883L70 19v-1c0-.552-.448-1-1-1zm-56 0h-2c-.513 0-.936.386-.993.883L10 18v1c0 .513.386.936.883.993L11 20h2c.513 0 .936-.386.993-.883L14 19v-1c0-.552-.448-1-1-1zm56-6h-2c-.513 0-.936.386-.993.883L66 12v1c0 .513.386.936.883.993L67 14h2c.513 0 .936-.386.993-.883L70 13v-1c0-.552-.448-1-1-1zm-56 0h-2c-.513 0-.936.386-.993.883L10 12v1c0 .513.386.936.883.993L11 14h2c.513 0 .936-.386.993-.883L14 13v-1c0-.552-.448-1-1-1z" transform="translate(-8 -17) translate(0 9)"/>
            <path fill="#E8EAED" d="M14 39H66V40H14z" transform="translate(-8 -17) translate(0 9)"/>
            <path fill="#E8EAED" fill-rule="nonzero" d="M65 56c4.97 0 9 4.03 9 9s-4.03 9-9 9-9-4.03-9-9 4.03-9 9-9zm5.606 4.808l-9.798 9.798C61.976 71.482 63.428 72 65 72c3.866 0 7-3.134 7-7 0-1.572-.518-3.024-1.394-4.192zM65 58c-3.866 0-7 3.134-7 7 0 1.572.518 3.024 1.394 4.192l9.798-9.798C68.024 58.518 66.572 58 65 58z" transform="translate(-8 -17) translate(0 9)"/>
        </g>
    </g>
</svg>
