<?xml version="1.0" encoding="UTF-8"?>
<svg width="420px" height="420px" viewBox="0 0 420 420" version="1.1" xmlns="http://www.w3.org/2000/svg" xmlns:xlink="http://www.w3.org/1999/xlink">
    <!-- Generator: Sketch 59.1 (86144) - https://sketch.com -->
    <title>Combined Shape</title>
    <desc>Created with Sketch.</desc>
    <g id="Page-1" stroke="none" stroke-width="1" fill="none" fill-rule="evenodd">
        <g id="Icon" transform="translate(-47.000000, -47.000000)" fill="#FFFFFF">
            <g id="Group" transform="translate(47.000000, 47.000000)">
                <path d="M209.776357,0 C325.447327,0 419.553577,94.1053865 419.553577,209.775493 C419.553577,325.4456 325.447327,419.552714 209.776357,419.552714 C94.1053865,419.552714 -2.84217094e-14,325.4456 -2.84217094e-14,209.775493 C-2.84217094e-14,94.1053865 94.1053865,0 209.776357,0 Z M268.553043,354.890502 L259.35259,364.665173 C246.541036,378.278906 228.470847,386.086554 209.776357,386.086554 C191.081867,386.086554 173.011678,378.278906 160.19926,364.663446 L160.19926,364.663446 L151.186184,355.08824 L151.186184,400.251192 C169.711431,405.943298 189.385115,409.013857 209.776357,409.013857 C230.236678,409.013857 249.973396,405.924301 268.553043,400.195929 L268.553043,400.195929 L268.553043,354.890502 Z M129.709539,332.268873 L129.709539,392.257031 C133.063322,393.73014 136.46287,395.115173 139.90991,396.406086 L139.90991,396.406086 L139.90991,343.10736 L129.709539,332.268873 Z M290.030551,332.070271 L279.829317,342.908758 L279.829317,396.33528 C283.276357,395.040049 286.676768,393.652426 290.030551,392.175 L290.030551,392.175 L290.030551,332.070271 Z M108.234622,308.069655 L108.234622,381.214762 C111.573725,383.197327 114.971546,385.090954 118.433265,386.879235 L118.433265,386.879235 L118.433265,320.24741 C114.810937,316.340995 111.415707,312.273109 108.234622,308.069655 L108.234622,308.069655 Z M311.505469,307.817516 C308.325247,312.03565 304.930016,316.118215 301.305962,320.039309 L301.305962,320.039309 L301.305962,386.780798 C304.766817,384.988199 308.167229,383.091982 311.505469,381.105099 L311.505469,381.105099 Z M143.23347,52.9041118 C124.064926,61.0372944 106.423026,72.7634457 91.0788651,87.6983141 C98.3356086,105.769367 116.025863,118.568832 136.660609,118.568832 L136.660609,118.568832 L144.611595,118.568832 C176.002796,118.568832 201.541283,144.109046 201.541283,175.50111 L201.541283,175.50111 L201.541283,230.023396 C201.541283,233.13713 199.017311,235.661965 195.903577,235.661965 C192.789844,235.661965 190.265872,233.13713 190.265872,230.023396 L190.265872,230.023396 L190.265872,175.50111 C190.265872,150.326151 169.785691,129.845107 144.611595,129.845107 L144.611595,129.845107 L136.660609,129.845107 C116.436883,129.845107 98.5169408,119.840748 87.5532484,104.532854 L87.5532484,104.532854 L87.5532484,171.225987 C87.5532484,195.994243 101.169572,220.169285 124.91287,237.550411 C127.424753,239.389638 127.970477,242.917845 126.130387,245.431456 C125.025987,246.939104 123.313692,247.737829 121.57722,247.737829 C120.421012,247.737829 119.254441,247.384663 118.250206,246.649836 C105.084622,237.010732 94.7037829,225.426192 87.5532484,212.75625 L87.5532484,212.75625 L87.5532484,212.820148 C87.5532484,250.354194 101.717887,286.075781 127.44116,313.40514 L127.44116,313.40514 L168.41102,356.935238 C179.10185,368.296135 194.178331,374.809416 209.776357,374.809416 C225.374383,374.809416 240.451727,368.296135 251.142558,356.935238 L251.142558,356.935238 L292.111554,313.40514 C317.833964,286.075781 332.000329,250.354194 332.000329,212.820148 L332.000329,212.820148 L332.000329,212.75625 C324.849794,225.425329 314.468956,237.009868 301.303372,246.649836 C300.298273,247.384663 299.132566,247.737829 297.976357,247.737829 C296.239885,247.737829 294.52759,246.939104 293.423191,245.431456 C291.5831,242.917845 292.128824,239.389638 294.640707,237.550411 C318.384005,220.168421 332.000329,195.99338 332.000329,171.225987 L332.000329,171.225987 L332.000329,104.532854 C321.036637,119.840748 303.115831,129.845107 282.892105,129.845107 L282.892105,129.845107 L274.941982,129.845107 C249.767887,129.845107 229.286842,150.326151 229.286842,175.50111 L229.286842,175.50111 L229.286842,230.023396 C229.286842,233.13713 226.76287,235.661965 223.648273,235.661965 C220.533676,235.661965 218.010567,233.13713 218.010567,230.023396 L218.010567,230.023396 L218.010567,175.50111 C218.010567,144.109046 243.550781,118.568832 274.941982,118.568832 L274.941982,118.568832 L282.892105,118.568832 C303.530304,118.568832 321.22315,105.765049 328.478166,87.6896793 C313.23935,72.8618832 295.714885,61.2160362 276.693997,53.088898 C257.812993,72.0666118 234.238939,82.5156661 210.05699,82.5156661 C185.786965,82.5156661 162.146423,72.0001234 143.23347,52.9041118 Z M87.5532484,271.537253 L87.5532484,367.118339 C90.6160362,369.502426 93.7539474,371.794984 96.9574836,374.000329 L96.9574836,374.000329 L96.9574836,291.659951 C96.9574836,291.482072 96.99375,291.313692 97.0101563,291.139268 C93.3990543,284.822862 90.2464638,278.271587 87.5532484,271.537253 L87.5532484,271.537253 Z M332.000329,271.537253 C329.346834,278.170559 326.243462,284.622533 322.700576,290.851727 C322.739433,291.118544 322.782607,291.382771 322.782607,291.659951 L322.782607,291.659951 L322.782607,373.871669 C325.920518,371.705181 328.997122,369.455798 332.000329,367.118339 L332.000329,367.118339 Z M76.2761102,61.886102 C67.8044408,69.5374589 59.9916118,77.9037829 52.9377878,86.8944079 L52.9377878,86.8944079 L55.4108141,89.7568668 C65.0490543,100.912253 65.0490543,118.39009 55.4108141,129.545477 L55.4108141,129.545477 L51.7746711,133.753248 L55.4108141,137.961883 C65.0490543,149.116406 65.0490543,166.59597 55.4108141,177.751357 L55.4108141,177.751357 L51.7755345,181.959128 L55.4108141,186.166036 C65.0490543,197.321423 65.0490543,214.79926 55.4108141,225.954646 L55.4108141,225.954646 L51.7755345,230.162418 L55.4108141,234.370189 C65.0490543,245.524712 65.0490543,263.003413 55.4108141,274.157936 L55.4108141,274.157936 L51.8826069,278.242229 C61.6650493,292.617558 61.5674753,312.874959 51.1037418,327.159622 C50.7168997,327.686349 50.238528,328.093914 49.7273437,328.44449 C57.5988898,339.042928 66.4971217,348.832278 76.2761102,357.665748 L76.2761102,357.665748 Z M343.277467,61.886102 L343.277467,357.664885 C353.056456,348.832278 361.954688,339.042928 369.82537,328.443627 C369.315049,328.093914 368.835814,327.686349 368.449836,327.159622 C357.985238,312.874095 357.887664,292.614967 367.670107,278.242229 L367.670107,278.242229 L364.142763,274.157936 C354.504523,263.003413 354.504523,245.524712 364.142763,234.370189 L364.142763,234.370189 L367.777179,230.161554 L364.142763,225.954646 C354.504523,214.79926 354.504523,197.321423 364.142763,186.166036 L364.142763,186.166036 L367.777179,181.958265 L364.142763,177.751357 C354.504523,166.59597 354.504523,149.116406 364.142763,137.961883 L364.142763,137.961883 L367.778043,133.753248 L364.142763,129.545477 C354.504523,118.39009 354.504523,100.912253 364.142763,89.7568668 L364.142763,89.7568668 L366.615789,86.8944079 C359.561102,77.9037829 351.748273,69.5374589 343.277467,61.886102 L343.277467,61.886102 Z M226.027784,326.302784 C229.142381,326.302784 231.666353,328.826756 231.666353,331.940489 C231.666353,335.055086 229.142381,337.579058 226.027784,337.579058 L226.027784,337.579058 L189.891723,337.579058 C186.777989,337.579058 184.254017,335.055086 184.254017,331.940489 C184.254017,328.826756 186.777989,326.302784 189.891723,326.302784 L189.891723,326.302784 Z M44.1552632,287.187952 L38.7368832,293.459457 L32.4636513,300.722245 C35.6827303,306.985979 39.2342516,313.05111 43.0759046,318.908141 C48.9994243,309.535855 49.2912829,296.864186 44.1552632,287.187952 L44.1552632,287.187952 Z M375.397451,287.187089 C370.262294,296.862459 370.553289,309.535855 376.476809,318.908141 C380.319326,313.05111 383.870847,306.985979 387.089926,300.721382 L387.089926,300.721382 Z M193.371316,267.411686 C197.834679,265.551735 203.076044,266.228709 208.523783,269.364893 C208.649852,269.432245 209.103183,269.57472 209.776702,269.653298 C210.450222,269.57472 210.903553,269.430518 211.032212,269.363166 C216.480814,266.229572 221.718725,265.556916 226.181225,267.410822 L226.181225,267.410822 C230.44426,269.187878 249.362393,277.422089 257.214942,282.324104 C259.675016,283.85852 260.569589,287.00852 259.282993,289.606752 C258.70273,290.77764 244.690929,318.279696 209.776702,318.279696 C174.862475,318.279696 160.850674,290.77764 160.270411,289.606752 C158.983816,287.00852 159.878388,283.85852 162.338462,282.324104 C170.191012,277.422089 189.109145,269.187878 193.371316,267.411686 Z M202.890395,279.13352 C200.733405,277.891826 198.743931,277.384959 197.70602,277.821883 C193.278059,279.667155 181.287681,284.941332 173.281431,289.107656 C178.198125,295.658931 189.620329,307.002558 209.776702,307.002558 C229.818232,307.002558 241.301743,295.635617 246.249523,289.096431 C238.244137,284.93097 226.272755,279.665428 221.847385,277.821883 C220.805156,277.386686 218.816546,277.891826 216.656965,279.136974 C214.45162,280.410617 211.905197,280.81991 210.158363,280.938207 C209.905362,280.95634 209.648043,280.95634 209.395041,280.938207 C207.648207,280.81991 205.101785,280.410617 202.890395,279.13352 Z M222.31384,285.413919 C225.428437,285.413919 227.95241,287.937891 227.95241,291.051624 C227.95241,294.165358 225.428437,296.68933 222.31384,296.68933 L222.31384,296.68933 L197.239046,296.68933 C194.125312,296.68933 191.60134,294.165358 191.60134,291.051624 C191.60134,287.937891 194.125312,285.413919 197.239046,285.413919 L197.239046,285.413919 Z M44.3245066,238.786924 L19.1650905,267.909745 C21.4248355,275.327961 24.1085526,282.559663 27.1825658,289.584128 L27.1825658,289.584128 L40.3559211,274.336678 L46.8787007,266.787212 C52.7417763,259.999342 52.7417763,248.528783 46.8787007,241.740913 L46.8787007,241.740913 L44.3245066,238.786924 Z M375.227344,238.786924 L372.676604,241.740913 C366.811801,248.528783 366.811801,259.999342 372.67574,266.787212 L372.67574,266.787212 L379.197656,274.336678 L392.370148,289.584128 C395.445025,282.559663 398.127878,275.327961 400.388487,267.909745 L400.388487,267.909745 L375.227344,238.786924 Z M44.3245066,190.582771 L11.4342928,228.652179 C12.2692845,237.531414 13.6741776,246.24486 15.6351562,254.747615 L15.6351562,254.747615 L21.5940789,247.850082 C21.5940789,247.849219 21.5940789,247.848355 21.5949424,247.848355 L29.9914885,238.128947 L40.0588816,226.476192 L40.0606086,226.474465 L46.8787007,218.583059 C52.7417763,211.795189 52.7417763,200.32463 46.8787007,193.537623 L46.8787007,193.537623 L44.3245066,190.582771 Z M375.227344,190.582771 L372.676604,193.537623 C366.811801,200.32463 366.811801,211.795189 372.67574,218.583059 L372.67574,218.583059 L397.958635,247.848355 C397.959498,247.850082 397.961225,247.851809 397.962952,247.853536 L397.962952,247.853536 L403.917558,254.747615 C405.8794,246.24486 407.284293,237.531414 408.118421,228.652179 L408.118421,228.652179 L375.227344,190.582771 Z M375.227344,142.378618 L372.676604,145.33347 C366.811801,152.12134 366.811801,163.591036 372.67574,170.378906 L372.67574,170.378906 L397.958635,199.644202 L397.958635,199.644202 L397.960362,199.646793 L408.981044,212.403084 C408.99227,211.527508 409.01472,210.654523 409.01472,209.775493 C409.01472,199.19778 408.182319,188.816077 406.594367,178.683923 L406.594367,178.683923 L375.227344,142.378618 Z M44.3245066,142.378618 L12.9592105,178.684786 C11.3703947,188.816077 10.5388569,199.19778 10.5388569,209.775493 C10.5388569,210.654523 10.5604441,211.527508 10.5725329,212.403084 L10.5725329,212.403084 L40.0588816,178.272039 C40.0597451,178.272039 40.0597451,178.272039 40.0606086,178.271176 L40.0606086,178.271176 L46.8787007,170.378906 C52.7417763,163.591036 52.7417763,152.12134 46.8787007,145.33347 L46.8787007,145.33347 L44.3245066,142.378618 Z M146.278384,141.756649 C163.964322,141.756649 178.353466,156.145794 178.353466,173.832595 L178.353466,173.832595 L178.353466,177.664749 C178.353466,180.779346 175.830358,183.303318 172.715761,183.303318 L172.715761,183.303318 L132.101657,183.303318 C114.41572,183.303318 100.026575,168.914174 100.026575,151.228236 L100.026575,151.228236 L100.026575,147.395218 C100.026575,144.280621 102.550547,141.756649 105.665144,141.756649 L105.665144,141.756649 Z M313.888261,141.756649 C317.002858,141.756649 319.525966,144.280621 319.525966,147.395218 L319.525966,147.395218 L319.525966,151.228236 C319.525966,168.914174 305.136822,183.303318 287.450884,183.303318 L287.450884,183.303318 L246.837644,183.303318 C243.723047,183.303318 241.199938,180.779346 241.199938,177.664749 L241.199938,177.664749 L241.199938,173.832595 C241.199938,156.145794 255.58822,141.756649 273.274157,141.756649 L273.274157,141.756649 Z M146.278384,153.032924 L111.3797,153.032924 C112.29845,163.659856 121.241583,172.02618 132.101657,172.02618 L132.101657,172.02618 L166.999478,172.02618 C166.082455,161.400111 157.138458,153.032924 146.278384,153.032924 L146.278384,153.032924 Z M308.173705,153.032924 L273.274157,153.032924 C262.414083,153.032924 253.47095,161.400111 252.553927,172.02618 L252.553927,172.02618 L287.450884,172.02618 C298.310958,172.02618 307.254955,163.659856 308.173705,153.032924 L308.173705,153.032924 Z M373.477056,96.2010691 L372.676604,97.1275905 C366.811801,103.916324 366.811801,115.38602 372.67574,122.17389 L372.67574,122.17389 L397.958635,151.440913 C397.959498,151.441776 397.959498,151.44264 397.960362,151.443503 L397.960362,151.443503 L401.557648,155.607237 C395.496834,134.108141 385.91213,114.090789 373.477056,96.2010691 L373.477056,96.2010691 Z M46.0765214,96.2002056 C33.6414474,114.089926 24.0558799,134.108141 17.9959293,155.606373 L17.9959293,155.606373 L27.5348684,144.565831 L46.8787007,122.17389 C52.7417763,115.38602 52.7417763,103.916324 46.8787007,97.1275905 L46.8787007,97.1275905 Z M209.776357,10.5379934 C163.709334,10.5379934 121.300041,26.1791941 87.5532484,52.432648 L87.5532484,52.432648 L87.5532484,69.4588816 C87.5532484,71.3939556 87.676727,73.2979441 87.8951891,75.174301 C121.344942,44.8054687 164.236924,28.1790296 209.776357,28.1790296 C255.269161,28.1790296 298.206908,44.7951069 331.660115,75.1535773 C331.877714,73.2841283 332.000329,71.3870477 332.000329,69.4588816 L332.000329,69.4588816 L332.000329,52.432648 C298.253536,26.1800576 255.844243,10.5379934 209.776357,10.5379934 Z M209.776357,39.4544408 C190.805551,39.4544408 172.339021,42.5750822 154.903495,48.4865132 C171.00148,63.1942845 190.346176,71.2393914 210.05699,71.2393914 C229.697862,71.2393914 248.989021,63.2435033 265.056785,48.626398 C247.494326,42.6182566 228.88273,39.4544408 209.776357,39.4544408 Z" id="Combined-Shape"></path>
            </g>
        </g>
    </g>
</svg>