<svg xmlns="http://www.w3.org/2000/svg" width="58" height="58" viewBox="0 0 58 58">
    <defs>
        <filter id="a" width="108.9%" height="108.9%" x="-4.5%" y="-4.5%" filterUnits="objectBoundingBox">
            <feOffset in="SourceAlpha" result="shadowOffsetOuter1"/>
            <feGaussianBlur in="shadowOffsetOuter1" result="shadowBlurOuter1" stdDeviation=".5"/>
            <feColorMatrix in="shadowBlurOuter1" result="shadowMatrixOuter1" values="0 0 0 0 0 0 0 0 0 0 0 0 0 0 0 0 0 0 0.5 0"/>
            <feMerge>
                <feMergeNode in="shadowMatrixOuter1"/>
                <feMergeNode in="SourceGraphic"/>
            </feMerge>
        </filter>
    </defs>
    <g fill="none" fill-rule="nonzero" filter="url(#a)" transform="translate(1 1)">
        <path fill="#FFF" d="M27.974 55.949C12.55 55.949 0 43.399 0 27.974S12.55 0 27.974 0C43.4 0 55.95 12.549 55.95 27.974S43.399 55.95 27.974 55.95"/>
        <path fill="#000" d="M27.974 40.278c-2.55 0-3.996-1.435-4.618-2.264 1.013-.528 2.53-1.195 3.09-1.428.132-.056.384.008.657.166.28.161.602.213.823.228a.7.7 0 0 0 .097 0c.22-.015.543-.067.822-.228.273-.158.525-.222.657-.166.56.233 2.075.9 3.088 1.426-.626.828-2.08 2.266-4.616 2.266m6.004-3.123c-.994-.62-3.388-1.662-3.927-1.887-.565-.235-1.228-.15-1.918.247a.572.572 0 0 1-.159.037.566.566 0 0 1-.158-.037c-.69-.397-1.353-.482-1.918-.247-.54.225-2.933 1.267-3.927 1.887a.713.713 0 0 0-.262.922c.074.148 1.847 3.628 6.265 3.628 4.419 0 6.192-3.48 6.265-3.628a.713.713 0 0 0-.261-.922M37.804 23.197h-4.416a2.636 2.636 0 0 1 2.622-2.404h4.416a2.636 2.636 0 0 1-2.622 2.404m3.346-3.83h-5.14a4.064 4.064 0 0 0-4.06 4.059v.485c0 .394.32.713.714.713h5.14c2.238 0 4.06-1.82 4.06-4.059v-.485a.713.713 0 0 0-.714-.714M18.144 23.197a2.636 2.636 0 0 1-2.622-2.404h4.417a2.636 2.636 0 0 1 2.622 2.404h-4.417zm5.854.714v-.485c0-2.239-1.821-4.06-4.06-4.06h-5.14a.713.713 0 0 0-.713.714v.485c0 2.238 1.821 4.06 4.06 4.06h5.14c.393 0 .713-.32.713-.714zM30.03 42.72h-4.572a.713.713 0 1 0 0 1.428h4.573a.713.713 0 1 0 0-1.427"/>
        <path fill="#000" d="M25.674 38.26c0 .394.32.713.714.713h3.173a.713.713 0 1 0 0-1.427h-3.173a.713.713 0 0 0-.714.714"/>
        <path fill="#000" d="M51.789 26.692l-3.2-3.703c-.742-.86-.742-2.31 0-3.17l.323-.374 3.97 4.594c.2 1.283.306 2.597.306 3.935 0 .111-.003.222-.004.333l-1.395-1.615zm.754 6.973l-.754-.872-3.2-3.704c-.742-.86-.742-2.31 0-3.17l.323-.374 4.162 4.818a25.144 25.144 0 0 1-.531 3.302zm-1.461 4.409l-1.668-1.93-.825-.955c-.742-.859-.742-2.31 0-3.17l.323-.374 3.184 3.686a25.025 25.025 0 0 1-1.014 2.743zm-2.012 3.711c-.75-1.186-.786-2.79-.136-4.014l1.48 1.712c-.408.793-.857 1.56-1.344 2.302zM44.87 46.69V9.259a25.37 25.37 0 0 1 2.953 3.165l-.313.362c-1.22 1.411-1.22 3.623 0 5.035l.46.533-.46.532c-1.22 1.412-1.22 3.624 0 5.035l.46.533-.46.532c-1.22 1.412-1.22 3.624 0 5.036l.46.532-.46.533c-1.22 1.411-1.22 3.623 0 5.035l.447.517c-1.238 1.819-1.226 4.382.098 6.19a.7.7 0 0 0 .175.163 25.362 25.362 0 0 1-3.36 3.698zm-1.427-36.473c0 .244-.016.484-.043.72-4.234-3.841-9.668-5.944-15.425-5.944-5.763 0-11.19 2.104-15.424 5.947a6.231 6.231 0 0 1-.043-.723V8.062a25.103 25.103 0 0 1 15.467-5.301c5.83 0 11.197 1.98 15.468 5.301v2.155zM21.03 7.563a21.59 21.59 0 0 1 6.944-1.143c2.418 0 4.774.4 6.996 1.16-2.033 1.85-4.475 2.862-6.96 2.862-2.495 0-4.943-1.018-6.98-2.879zm22.412 15.46v.073c0 3.134-1.723 6.193-4.728 8.393a.714.714 0 1 0 .843 1.152c1.666-1.22 2.98-2.686 3.885-4.29v.008c0 4.75-1.793 9.271-5.048 12.73l-5.185 5.508a7.216 7.216 0 0 1-5.235 2.262 7.216 7.216 0 0 1-5.235-2.262l-5.184-5.508a18.505 18.505 0 0 1-5.048-12.73v-.008c.905 1.604 2.218 3.07 3.885 4.29a.71.71 0 0 0 .997-.154.714.714 0 0 0-.154-.998c-3.005-2.2-4.728-5.259-4.728-8.393v-8.44a7.635 7.635 0 0 0 6.214 3.203h1.007a5.784 5.784 0 0 1 5.777 5.778v6.9a.713.713 0 1 0 1.427 0v-6.9c0-3.973-3.232-7.205-7.204-7.205H18.72a6.223 6.223 0 0 1-5.768-3.907 21.498 21.498 0 0 1 6.6-4.403c2.394 2.417 5.385 3.747 8.457 3.747 3.06 0 6.043-1.322 8.433-3.723a21.507 21.507 0 0 1 6.553 4.378 6.224 6.224 0 0 1-5.769 3.908h-1.006c-3.973 0-7.205 3.232-7.205 7.205v6.9a.713.713 0 1 0 1.427 0v-6.9a5.784 5.784 0 0 1 5.778-5.778h1.006a7.635 7.635 0 0 0 6.215-3.203v8.368zm0 24.863c-.38.296-.77.58-1.167.855V38.337c0-.035-.005-.069-.01-.103a19.84 19.84 0 0 0 1.177-2.444v12.096zm-2.594 1.77c-.422.251-.853.491-1.29.718v-8.446c.458-.496.888-1.013 1.29-1.546v9.274zm-2.718 1.4c-.424.188-.854.363-1.29.527v-6.76l1.29-1.372v7.606zm-2.718 1.016a25.21 25.21 0 0 1-7.438 1.116c-2.58 0-5.07-.389-7.414-1.109v-5.715l1.14 1.211a8.648 8.648 0 0 0 6.274 2.711 8.649 8.649 0 0 0 6.274-2.71l1.164-1.237v5.733zm-16.28-.48a25.112 25.112 0 0 1-1.29-.525v-7.591l1.29 1.371v6.745zm-2.717-1.205a25.173 25.173 0 0 1-1.291-.717v-9.257c.403.532.832 1.047 1.29 1.542v8.432zm-2.718-12.05v10.42a25.175 25.175 0 0 1-1.19-.871V35.79c.34.852.74 1.681 1.197 2.48-.002.023-.007.044-.007.067zM11.08 23.024v23.665a25.35 25.35 0 0 1-3.36-3.697.698.698 0 0 0 .174-.163c1.324-1.807 1.337-4.371.099-6.19l.446-.517c1.22-1.412 1.22-3.624 0-5.035l-.46-.533.46-.532c1.22-1.412 1.22-3.624 0-5.036l-.46-.532.46-.533c1.22-1.411 1.22-3.623 0-5.035l-.46-.532.46-.533c1.22-1.412 1.22-3.624 0-5.035l-.313-.362a25.363 25.363 0 0 1 2.954-3.165v13.765zM6.878 41.785a25.152 25.152 0 0 1-1.343-2.302l.794-.919.686-.793c.65 1.224.613 2.828-.137 4.014zm-3.026-6.454l3.184-3.686.324.375c.742.858.742 2.31 0 3.169l-.826.955-1.667 1.93a25.024 25.024 0 0 1-1.015-2.743zm-.978-4.968l4.162-4.818.324.374c.742.86.742 2.31 0 3.17l-.863.999-1.274 1.474-1.063 1.23-.754.873a25.18 25.18 0 0 1-.532-3.302zm-.113-2.389c0-1.338.105-2.652.306-3.934l3.97-4.595.323.374c.742.86.742 2.31 0 3.17l-.863.998-3.732 4.32c-.002-.111-.004-.222-.004-.333zm4.497-14.373l.102.118c.742.859.742 2.31 0 3.17L4.91 19.721l-1.207 1.397a25.105 25.105 0 0 1 3.554-7.518zm41.331.118l.102-.118a25.102 25.102 0 0 1 3.553 7.518l-.455-.527-3.2-3.704c-.742-.859-.742-2.31 0-3.17zM27.974 1.427c-14.638 0-26.547 11.91-26.547 26.547 0 14.638 11.91 26.548 26.547 26.548 14.639 0 26.548-11.91 26.548-26.548 0-14.638-11.91-26.547-26.548-26.547z"/>
    </g>
</svg>
