<svg xmlns="http://www.w3.org/2000/svg" width="22" height="22" viewBox="0 0 22 22">
    <g fill="none" fill-rule="evenodd">
        <path fill="#FFF" d="M0 0H1080V700H0z" transform="translate(-779 -93)"/>
        <g>
            <g>
                <path fill="#96999E" d="M8.083 13.401l.985 4.634-2.445.52-1.1-5.173h-.759c-.552 0-1-.448-1-1v-2c0-.552.448-1 1-1h3c1.333 0 4-1.166 8-3.5v-.5c0-.552.448-1 1-1s1 .448 1 1l.001 4.063c.862.223 1.5 1.006 1.5 1.937 0 .932-.638 1.715-1.5 1.937v4.063c0 .552-.449 1-1 1-.553 0-1-.448-1-1v-.5l-.75-.432c-3.302-1.883-5.612-2.9-6.932-3.049z" transform="translate(-779 -93) translate(772 88) translate(6.236 4.618)"/>
            </g>
        </g>
    </g>
</svg>
