<svg width="44" height="44" viewBox="0 0 44 44" xmlns="http://www.w3.org/2000/svg">
    <path d="M32.9 24.4a8.5 8.5 0 1 1 0 17 8.5 8.5 0 0 1 0-17zm0 4.25a.708.708 0 0 0-.416.135l-.085.073-2.833 2.833a.708.708 0 0 0 .914 1.076l.087-.075 1.625-1.624v5.374a.708.708 0 0 0 1.41.096l.006-.096v-5.374l1.625 1.624a.706.706 0 0 0 1.209-.5.708.708 0 0 0-.135-.416l-.073-.085-2.833-2.833a.708.708 0 0 0-.501-.208zM29.932 8.002c2.113.022 3.26.264 4.453.902a6.543 6.543 0 0 1 2.71 2.71c.639 1.193.88 2.341.903 4.454l.002.342v6.79a10.93 10.93 0 0 0-4-1.155V16.41l-.004-.51-.012-.441-.02-.381c-.056-.767-.177-1.169-.395-1.577a2.544 2.544 0 0 0-1.07-1.07c-.367-.196-.73-.314-1.357-.376l-.22-.018-.38-.021-.213-.007-.475-.008H14.146l-.5.008-.43.019c-.858.05-1.283.172-1.715.403-.466.25-.82.604-1.07 1.07-.196.367-.314.73-.376 1.357l-.018.22-.021.38-.007.213-.008.475v11.708l.008.5.019.43c.05.858.172 1.283.403 1.715.25.466.604.82 1.07 1.07.367.196.73.314 1.357.376l.22.018.38.021.213.007.475.008 7.899.001a11.14 11.14 0 0 0 .37 4H14.41c-2.334 0-3.54-.233-4.795-.904a6.543 6.543 0 0 1-2.71-2.71c-.639-1.193-.88-2.341-.903-4.454V16.068c.022-2.113.264-3.26.902-4.453a6.543 6.543 0 0 1 2.71-2.71c1.193-.639 2.341-.88 4.454-.903h15.864zM27 14a2 2 0 0 1 2 2v6.75A11.027 11.027 0 0 0 22.414 30H17a2 2 0 0 1-2-2V16a2 2 0 0 1 2-2h10z" fill-rule="nonzero" fill="#D2D4D9"/>
</svg>
