<?xml version="1.0" encoding="UTF-8"?>
<svg width="477px" height="477px" viewBox="0 0 477 477" version="1.1" xmlns="http://www.w3.org/2000/svg" xmlns:xlink="http://www.w3.org/1999/xlink">
    <!-- Generator: Sketch 59.1 (86144) - https://sketch.com -->
    <title>Group 16</title>
    <desc>Created with Sketch.</desc>
    <defs>
        <polygon id="path-1" points="0.0001 0.4381 476.562 0.4381 476.562 477 0.0001 477"></polygon>
    </defs>
    <g id="Page-1" stroke="none" stroke-width="1" fill="none" fill-rule="evenodd">
        <g id="Icon" transform="translate(-18.000000, -18.000000)">
            <g id="Group-16" transform="translate(18.000000, 17.000000)">
                <g id="Group-3" transform="translate(0.000000, 0.562000)">
                    <mask id="mask-2" fill="white">
                        <use xlink:href="#path-1"></use>
                    </mask>
                    <g id="Clip-2"></g>
                    <path d="M238.2811,477.0001 C106.8921,477.0001 0.0001,370.1081 0.0001,238.7191 C0.0001,107.3291 106.8921,0.4381 238.2811,0.4381 C369.6701,0.4381 476.5621,107.3291 476.5621,238.7191 C476.5621,370.1081 369.6701,477.0001 238.2811,477.0001" id="Fill-1" fill="#FFFFFF" mask="url(#mask-2)"></path>
                </g>
                <path d="M238.2811,344.0856 C216.5531,344.0856 204.2411,331.8576 198.9421,324.7966 C207.5721,320.3046 220.4961,314.6186 225.2701,312.6306 C226.3881,312.1586 228.5331,312.7046 230.8581,314.0446 C233.2421,315.4216 235.9861,315.8606 237.8691,315.9896 C238.1421,316.0086 238.4201,316.0086 238.6931,315.9896 C240.5761,315.8606 243.3201,315.4216 245.6971,314.0476 C248.0251,312.7046 250.1691,312.1616 251.2921,312.6306 C256.0621,314.6176 268.9671,320.2936 277.5961,324.7826 C272.2631,331.8316 259.8851,344.0856 238.2811,344.0856 M289.4171,317.4826 C280.9521,312.1996 260.5591,303.3226 255.9661,301.4096 L255.9651,301.4076 C251.1541,299.4096 245.5081,300.1346 239.6351,303.5136 C239.4961,303.5856 239.0081,303.7406 238.2811,303.8246 C237.5541,303.7406 237.0661,303.5866 236.9301,303.5146 C231.0581,300.1336 225.4081,299.4036 220.5961,301.4096 C216.0031,303.3226 195.6101,312.1996 187.1451,317.4826 C184.4931,319.1376 183.5291,322.5326 184.9161,325.3336 C185.5421,326.5956 200.6461,356.2406 238.2811,356.2406 C275.9161,356.2406 291.0201,326.5956 291.6461,325.3336 C293.0331,322.5326 292.0691,319.1376 289.4171,317.4826" id="Fill-4" fill="#000000"></path>
                <path d="M322.0096,198.5895 L284.3926,198.5895 C285.3806,187.1345 295.0216,178.1155 306.7276,178.1155 L344.3466,178.1155 C343.3566,189.5695 333.7156,198.5895 322.0096,198.5895 M350.5076,165.9605 L306.7276,165.9605 C287.6626,165.9605 272.1536,181.4715 272.1536,200.5355 L272.1536,204.6665 C272.1536,208.0245 274.8736,210.7445 278.2306,210.7445 L322.0096,210.7445 C341.0736,210.7445 356.5846,195.2355 356.5846,176.1695 L356.5846,172.0375 C356.5846,168.6815 353.8636,165.9605 350.5076,165.9605" id="Fill-6" fill="#000000"></path>
                <path d="M154.5516,198.5895 C142.8456,198.5895 133.2056,189.5695 132.2156,178.1155 L169.8336,178.1155 C181.5396,178.1155 191.1816,187.1345 192.1696,198.5895 L154.5516,198.5895 Z M204.4086,204.6665 L204.4086,200.5355 C204.4086,181.4715 188.8986,165.9605 169.8336,165.9605 L126.0546,165.9605 C122.6976,165.9605 119.9776,168.6815 119.9776,172.0375 L119.9776,176.1695 C119.9776,195.2355 135.4876,210.7445 154.5516,210.7445 L198.3316,210.7445 C201.6886,210.7445 204.4086,208.0245 204.4086,204.6665 L204.4086,204.6665 Z" id="Fill-8" fill="#000000"></path>
                <path d="M255.7987,364.8893 L216.8477,364.8893 C213.4897,364.8893 210.7697,367.6103 210.7697,370.9663 C210.7697,374.3243 213.4897,377.0443 216.8477,377.0443 L255.7987,377.0443 C259.1557,377.0443 261.8767,374.3243 261.8767,370.9663 C261.8767,367.6103 259.1557,364.8893 255.7987,364.8893" id="Fill-10" fill="#000000"></path>
                <path d="M218.6893,326.8912 C218.6893,330.2482 221.4103,332.9682 224.7663,332.9682 L251.7953,332.9682 C255.1523,332.9682 257.8733,330.2482 257.8733,326.8912 C257.8733,323.5352 255.1523,320.8142 251.7953,320.8142 L224.7663,320.8142 C221.4103,320.8142 218.6893,323.5352 218.6893,326.8912" id="Fill-12" fill="#000000"></path>
                <path d="M441.1307,228.3629 C441.1307,228.3619 441.1307,228.3609 441.1297,228.3599 L413.8747,196.8139 C407.5547,189.4969 407.5547,177.1329 413.8767,169.8159 L416.6267,166.6309 L450.4387,205.7649 C452.1507,216.6869 453.0467,227.8789 453.0467,239.2809 C453.0467,240.2279 453.0237,241.1699 453.0117,242.1129 L441.1307,228.3629 Z M447.5527,287.7579 L441.1337,280.3269 C441.1317,280.3249 441.1307,280.3229 441.1297,280.3209 L413.8747,248.7739 C407.5547,241.4579 407.5547,229.0929 413.8767,221.7769 L416.6267,218.5919 L452.0807,259.6289 C451.1817,269.1989 449.6677,278.5919 447.5527,287.7579 L447.5527,287.7579 Z M435.1057,325.3089 L420.9057,308.8739 L420.9057,308.8729 L413.8747,300.7349 C407.5547,293.4189 407.5547,281.0539 413.8767,273.7379 L416.6267,270.5519 L443.7487,301.9449 C441.3127,309.9419 438.4197,317.7379 435.1057,325.3089 L435.1057,325.3089 Z M417.9747,356.9189 C411.5877,346.8149 411.2747,333.1549 416.8107,322.7249 L429.4137,337.3139 C425.9427,344.0669 422.1157,350.6049 417.9747,356.9189 L417.9747,356.9189 Z M382.1867,398.6969 L382.1867,242.5619 L382.1867,197.7259 L382.1867,197.1139 L382.1867,79.8649 C391.3177,88.1129 399.7397,97.1309 407.3437,106.8219 L404.6787,109.9079 C394.2877,121.9319 394.2877,140.7729 404.6787,152.7979 L408.5967,157.3339 L404.6787,161.8699 C394.2877,173.8939 394.2877,192.7349 404.6787,204.7589 L408.5957,209.2949 L404.6787,213.8309 C394.2877,225.8549 394.2877,244.6959 404.6787,256.7199 L408.5957,261.2559 L404.6787,265.7919 C394.2877,277.8159 394.2877,296.6569 404.6787,308.6809 L408.4807,313.0829 C397.9357,328.5769 398.0407,350.4149 409.3207,365.8129 C409.7367,366.3819 410.2537,366.8199 410.8047,367.1979 C402.3187,378.6229 392.7287,389.1749 382.1867,398.6969 L382.1867,398.6969 Z M370.0307,88.0289 C370.0307,90.1059 369.8987,92.1519 369.6637,94.1669 C333.6037,61.4419 287.3187,43.5309 238.2807,43.5309 C189.1927,43.5309 142.9577,61.4529 106.9007,94.1879 C106.6647,92.1659 106.5307,90.1129 106.5307,88.0289 L106.5307,69.6749 C142.9077,41.3759 188.6227,24.5139 238.2807,24.5139 C287.9397,24.5139 333.6537,41.3759 370.0307,69.6749 L370.0307,88.0289 Z M179.1307,65.4219 C197.9257,59.0489 217.8307,55.6849 238.2807,55.6849 C258.8767,55.6849 278.9387,59.0949 297.8687,65.5709 C280.5497,81.3279 259.7537,89.9469 238.5827,89.9469 C217.3357,89.9469 196.4837,81.2739 179.1307,65.4219 L179.1307,65.4219 Z M370.0307,197.1139 L370.0307,197.7259 C370.0307,224.4239 355.3527,250.4819 329.7597,269.2209 C327.0517,271.2029 326.4627,275.0069 328.4457,277.7159 C329.6367,279.3409 331.4827,280.2019 333.3547,280.2019 C334.6017,280.2019 335.8587,279.8209 336.9417,279.0279 C351.1327,268.6369 362.3217,256.1499 370.0307,242.4929 L370.0307,242.5619 C370.0307,283.0209 354.7607,321.5269 327.0327,350.9869 L282.8707,397.9099 C271.3467,410.1549 255.0937,417.1769 238.2807,417.1769 C221.4667,417.1769 205.2157,410.1549 193.6917,397.9099 L149.5277,350.9869 C121.8007,321.5269 106.5307,283.0209 106.5307,242.5619 L106.5307,242.4939 C114.2397,256.1519 125.4297,268.6369 139.6207,279.0279 C140.7037,279.8209 141.9607,280.2019 143.2077,280.2019 C145.0797,280.2019 146.9257,279.3409 148.1157,277.7159 C150.0997,275.0069 149.5107,271.2029 146.8027,269.2209 C121.2097,250.4839 106.5307,224.4249 106.5307,197.7259 L106.5307,197.1139 L106.5307,125.8359 C118.3497,142.3369 137.6657,153.1209 159.4667,153.1209 L168.0367,153.1209 C195.1727,153.1209 217.2497,175.1979 217.2497,202.3349 L217.2497,261.1059 C217.2497,264.4639 219.9707,267.1839 223.3267,267.1839 C226.6837,267.1839 229.4037,264.4639 229.4037,261.1059 L229.4037,202.3349 C229.4037,168.4959 201.8747,140.9659 168.0367,140.9659 L159.4667,140.9659 C137.2227,140.9659 118.1537,127.1679 110.3317,107.6879 C126.8717,91.5899 145.8887,78.9499 166.5517,70.1819 C186.9397,90.7669 212.4217,102.1019 238.5827,102.1019 C264.6507,102.1019 290.0617,90.8389 310.4137,70.3829 C330.9167,79.1419 349.8067,91.6959 366.2347,107.6789 C358.4137,127.1639 339.3417,140.9659 317.0947,140.9659 L308.5257,140.9659 C274.6877,140.9659 247.1557,168.4959 247.1557,202.3349 L247.1557,261.1059 C247.1557,264.4639 249.8767,267.1839 253.2347,267.1839 C256.5907,267.1839 259.3117,264.4639 259.3117,261.1059 L259.3117,202.3349 C259.3117,175.1979 281.3897,153.1209 308.5257,153.1209 L317.0947,153.1209 C338.8957,153.1209 358.2127,142.3369 370.0307,125.8359 L370.0307,197.1139 Z M370.0307,408.8859 C366.7927,411.4059 363.4767,413.8309 360.0937,416.1659 L360.0937,327.5469 C360.0937,327.2489 360.0477,326.9629 360.0057,326.6759 C363.8257,319.9619 367.1707,313.0059 370.0307,305.8549 L370.0307,408.8859 Z M347.9387,423.9639 C344.3397,426.1049 340.6757,428.1479 336.9437,430.0819 L336.9437,358.1369 C340.8507,353.9109 344.5107,349.5109 347.9387,344.9649 L347.9387,423.9639 Z M324.7887,435.8959 C321.1747,437.4879 317.5097,438.9839 313.7937,440.3809 L313.7937,382.7909 L324.7887,371.1069 L324.7887,435.8959 Z M301.6387,444.5429 C281.6107,450.7169 260.3357,454.0469 238.2807,454.0469 C216.3007,454.0469 195.0937,450.7369 175.1237,444.6019 L175.1237,395.9179 L184.8397,406.2409 C198.6517,420.9169 218.1287,429.3329 238.2807,429.3329 C258.4317,429.3329 277.9097,420.9169 291.7207,406.2429 L301.6387,395.7049 L301.6387,444.5429 Z M162.9687,440.4569 C159.2537,439.0649 155.5877,437.5719 151.9737,435.9839 L151.9737,371.3209 L162.9687,383.0039 L162.9687,440.4569 Z M139.8187,430.1869 C136.0867,428.2589 132.4237,426.2179 128.8237,424.0819 L128.8237,345.2359 C132.2537,349.7659 135.9137,354.1509 139.8187,358.3629 L139.8187,430.1869 Z M116.6687,327.5469 L116.6687,416.3039 C113.2167,413.9279 109.8337,411.4569 106.5307,408.8859 L106.5307,305.8549 C109.4347,313.1149 112.8327,320.1759 116.7257,326.9859 C116.7087,327.1739 116.6687,327.3549 116.6687,327.5469 L116.6687,327.5469 Z M94.3757,197.1139 L94.3757,197.7259 L94.3757,242.5619 L94.3757,398.6969 C83.8337,389.1749 74.2417,378.6229 65.7577,367.1979 C66.3087,366.8209 66.8247,366.3819 67.2407,365.8129 C78.5207,350.4159 78.6257,328.5799 68.0807,313.0839 L71.8837,308.6809 C82.2747,296.6569 82.2747,277.8159 71.8837,265.7919 L67.9657,261.2569 L71.8837,256.7199 C82.2747,244.6959 82.2747,225.8549 71.8837,213.8309 L67.9657,209.2959 L71.8837,204.7589 C82.2747,192.7349 82.2747,173.8939 71.8837,161.8699 L67.9647,157.3339 L71.8837,152.7979 C82.2747,140.7729 82.2747,121.9319 71.8837,109.9079 L69.2177,106.8219 C76.8217,97.1309 85.2437,88.1129 94.3757,79.8649 L94.3757,197.1139 Z M58.5877,356.9189 C54.4457,350.6049 50.6187,344.0679 47.1487,337.3139 L53.9107,329.4859 L59.7517,322.7259 C65.2877,333.1569 64.9727,346.8159 58.5877,356.9189 L58.5877,356.9189 Z M32.8137,301.9449 L59.9347,270.5519 L62.6877,273.7379 C69.0077,281.0539 69.0077,293.4189 62.6877,300.7349 L55.6557,308.8729 L55.6557,308.8739 L41.4557,325.3089 C38.1427,317.7379 35.2487,309.9419 32.8137,301.9449 L32.8137,301.9449 Z M24.4807,259.6289 L59.9347,218.5919 L62.6877,221.7769 C69.0077,229.0929 69.0077,241.4579 62.6877,248.7739 L55.3377,257.2819 C55.3367,257.2819 55.3357,257.2829 55.3357,257.2829 L44.4847,269.8429 L35.4327,280.3209 C35.4317,280.3219 35.4317,280.3219 35.4317,280.3229 L29.0087,287.7579 C26.8947,278.5919 25.3807,269.1999 24.4807,259.6289 L24.4807,259.6289 Z M23.5157,239.2809 C23.5157,227.8789 24.4117,216.6869 26.1227,205.7659 L59.9347,166.6309 L62.6877,169.8159 C69.0077,177.1329 69.0077,189.4969 62.6877,196.8139 L55.3377,205.3209 C55.3367,205.3209 55.3357,205.3219 55.3357,205.3219 L23.5507,242.1129 C23.5387,241.1699 23.5157,240.2279 23.5157,239.2809 L23.5157,239.2809 Z M61.8217,116.8529 L62.6877,117.8539 C69.0077,125.1709 69.0077,137.5349 62.6877,144.8509 L41.8347,168.9879 L31.5527,180.8889 C38.0857,157.7149 48.4177,136.1369 61.8217,116.8529 L61.8217,116.8529 Z M413.8767,117.8539 L414.7397,116.8539 C428.1447,136.1379 438.4767,157.7159 445.0097,180.8899 L441.1307,176.4019 C441.1307,176.4009 441.1307,176.3999 441.1297,176.3989 L413.8747,144.8509 C407.5547,137.5349 407.5547,125.1709 413.8767,117.8539 L413.8767,117.8539 Z M238.2807,13.1549 C113.5947,13.1549 12.1547,114.5949 12.1547,239.2809 C12.1547,363.9669 113.5947,465.4069 238.2807,465.4069 C362.9677,465.4069 464.4067,363.9669 464.4067,239.2809 C464.4067,114.5949 362.9677,13.1549 238.2807,13.1549 L238.2807,13.1549 Z" id="Fill-14" fill="#000000"></path>
            </g>
        </g>
    </g>
</svg>